<?xml version="1.0" encoding="utf-8"?>
<!-- Generator: Adobe Illustrator 19.2.1, SVG Export Plug-In . SVG Version: 6.00 Build 0)  -->
<svg version="1.1" id="Layer_2" xmlns="http://www.w3.org/2000/svg" xmlns:xlink="http://www.w3.org/1999/xlink" x="0px" y="0px"
	 viewBox="0 0 106.2 93.2" style="enable-background:new 0 0 106.2 93.2;" xml:space="preserve">
<style type="text/css">
	.st0{fill:#5A4299;}
	.st1{fill:#492F91;}
	.st2{clip-path:url(#SVGID_2_);fill:url(#SVGID_3_);}
	.st3{fill:#6650A0;}
</style>
<g>
	<path class="st0" d="M46.9,54.2C46.9,54.2,46.8,54.2,46.9,54.2C46.8,54.3,46.8,54.2,46.9,54.2"/>
	<path class="st1" d="M95.7,21.5l9.2-20.2L60.9,50.2c-3.6,3.3-4.7-2.9-4.9-4.2c0.5,0.1,1.1,0.2,1.1,0.2c-2-1.8,0-3.9,0-3.9
		s0.8-1.1,4.6-1.6l0.3-0.4c-2.2,0.1-4.3-0.4-6.2-2.4c-3.1-3.1-5.1-3.2-5.7-2.8c-0.8,0.6-2.6,0.8-4.4-0.1c0,0-1.4,0.9-1.9,1.9
		c0,0,4.2-1.7,6.3,4.1c1.4,3.9-1.1,7.1-1.8,7.4c0,0,0.7,0.1,1.2,0c-1.2,2.5-1.6,4.1-3.6,2.4L1.3,1.3l9.2,20.2l28.7,29.7
		c0,0.1,0,0.2,0,0.4l-27-26.2l4.3,10l22.8,23.2c0,0,0,0.1,0,0.1L17.8,38.6l4.5,10.3l16.5,15.2L23.3,51.3l3.9,9.1l13.6,11.9l4-1.1
		c0,0,2.2,2.5,3.6,3.7c-1.8,2-1.2,4.4-0.2,7.2c0-0.2,0.2-1.3,1-2.1c-0.5,2-0.2,4,0.6,5.6c0.8,1.8,0.3,3,0.3,3c0.5,0,0.9-0.2,1.3-0.5
		c0.1-0.3,0.3-0.5,0.4-0.8c0.1-0.1,0.1-0.3,0.2-0.4l0.1-0.2l0-0.1c0,0,0,0,0,0l0,0l0-0.1c0.1-0.3,0.2-0.6,0.2-0.9c0-0.3,0-0.6,0-0.8
		c0-0.3-0.1-0.5-0.1-0.7c-0.1-0.5-0.2-0.9-0.3-1.1c-0.1-0.3-0.2-0.4-0.2-0.4s0.1,0.1,0.4,0.3c0.2,0.2,0.5,0.6,0.7,1.1
		c0.1,0.2,0.2,0.5,0.2,0.8c0.1,0.3,0.1,0.6,0,1c0,0.3-0.1,0.7-0.3,1l-0.1,0.2l-0.1,0.2c-0.1,0.1-0.1,0.3-0.2,0.5
		c-0.2,0.3-0.4,0.6-0.6,0.9c0,0,0,0-0.1,0.1c-0.4,2.2,0.3,3.9,0.3,3.3c0-0.6,0.8-3.2,2.9-3.6c1.7-0.3,2.2-2.2,2.3-3.5
		c-0.1-0.4-0.1-0.8-0.2-1.1c-0.1-0.4-0.3-0.8-0.4-1.1c-0.2-0.4-0.4-0.7-0.6-1.1c-0.1-0.2-0.2-0.3-0.3-0.5c-0.1-0.2-0.2-0.3-0.4-0.5
		l0,0L55.1,80c-0.1-0.1-0.2-0.3-0.2-0.5c-0.1-0.2-0.1-0.3-0.2-0.5c0-0.2-0.1-0.3-0.1-0.5c0-0.1,0-0.2,0-0.3l0-0.3c0-0.1,0-0.2,0-0.3
		c0-0.1,0-0.2,0.1-0.3c0.1-0.2,0.1-0.3,0.2-0.5c0.1-0.1,0.2-0.3,0.4-0.4c-0.1,0.1-0.2,0.3-0.2,0.4c-0.1,0.1-0.1,0.3-0.1,0.5
		c0,0.1,0,0.2,0,0.2c0,0.1,0,0.2,0,0.2c0,0.2,0.1,0.3,0.1,0.4c0,0.2,0.1,0.3,0.2,0.4l0.1,0.2c0,0.1,0.1,0.1,0.1,0.2
		c0.1,0.1,0.2,0.3,0.3,0.4l0.3,0.4c0.2,0.2,0.3,0.3,0.4,0.5c0.1,0.2,0.3,0.4,0.4,0.5c0.2,0.4,0.4,0.8,0.6,1.2
		c0.2,0.4,0.3,0.8,0.4,1.2c0.1,0.2,0.1,0.4,0.1,0.6c0,0.2,0.1,0.4,0.1,0.7c0,0,0,0.1,0,0.1c0.2,0.7,0.2,1.3,0.2,1.3
		c1.4-3.6-0.8-6.9-0.8-6.9c0.6,0.1,1.2,1.3,1.7,2.7c0.5-2.8-0.6-6.1-1.3-7.1c1.6-1.8,2.9-3.6,2.9-3.6l3.9,1.1l15.1-13.5l3.2-7.5
		L67.7,63.8v0l16.2-14.9l4.5-10.3L67.8,58c0-0.1,0-0.1,0-0.2l22-22.4l4.3-10L67.8,50.8c0-0.1,0-0.3,0-0.4L95.7,21.5z M51.8,37.2
		c0,0.1-0.2,0.2-0.4,0.2c-0.2,0-0.4-0.1-0.4-0.3c0-0.1,0-0.2,0.1-0.2c0,0,0,0-0.1-0.1c-0.1-0.1-0.4,0-0.5,0.1c0,0-0.1-0.2-0.1-0.2
		c0,0,0.4-0.4,0.9-0.1c0.5,0.3,0.6,0.5,1.2,0.4C52.9,37.1,52.7,37.4,51.8,37.2"/>
	<g>
		<defs>
			<path id="SVGID_1_" d="M50.5,36.7c0,0,0.1,0.2,0.1,0.2c0,0,0,0,0,0c0.1,0,0.3-0.1,0.4-0.1c0,0,0.1,0,0.1,0c0,0,0,0,0.1,0.1
				C51.1,37,51,37,51,37.1c0,0.2,0.2,0.3,0.4,0.3c0.1,0,0.3-0.1,0.4-0.2c0.2,0,0.4,0.1,0.5,0.1c0.4,0,0.5-0.2,0.3-0.2c0,0,0,0,0,0
				c-0.1,0-0.1,0-0.2,0c-0.4,0-0.5-0.1-1-0.4c-0.1-0.1-0.3-0.1-0.4-0.1C50.7,36.5,50.5,36.7,50.5,36.7 M60.9,50.2l43.9-48.9
				l-9.2,20.2L67.8,50.4c0,0.1,0,0.3,0,0.4l26.2-25.4l-4.3,10l-22,22.4c0,0.1,0,0.1,0,0.2l20.6-19.4l-4.5,10.3L67.7,63.8v0
				l15.1-12.5l-3.2,7.5L64.5,72.3l-3.9-1.1c0,0-1.3,1.8-2.9,3.6c0.7,1,1.9,4.3,1.3,7.1c-0.4-1.4-1.1-2.6-1.7-2.7
				c0,0,2.2,3.3,0.8,6.9c0,0,0-0.6-0.2-1.3c0,0,0-0.1,0-0.1c0-0.2,0-0.4-0.1-0.7c0-0.2-0.1-0.4-0.1-0.6c-0.1-0.4-0.3-0.8-0.4-1.2
				c-0.2-0.4-0.4-0.8-0.6-1.2c-0.1-0.2-0.2-0.4-0.4-0.5c-0.1-0.2-0.3-0.3-0.4-0.5l-0.3-0.4c-0.1-0.1-0.2-0.3-0.3-0.4
				c0-0.1-0.1-0.1-0.1-0.2l-0.1-0.2c-0.1-0.1-0.1-0.3-0.2-0.4c-0.1-0.1-0.1-0.3-0.1-0.4c0-0.1,0-0.2,0-0.2c0-0.1,0-0.2,0-0.2
				c0-0.2,0-0.3,0.1-0.5c0.1-0.2,0.1-0.3,0.2-0.4c-0.1,0.1-0.3,0.2-0.4,0.4c-0.1,0.1-0.2,0.3-0.2,0.5c0,0.1,0,0.2-0.1,0.3
				c0,0.1,0,0.2,0,0.3l0,0.3c0,0.1,0,0.2,0,0.3c0,0.2,0.1,0.3,0.1,0.5c0.1,0.2,0.1,0.3,0.2,0.5c0.1,0.2,0.2,0.3,0.2,0.5l0.3,0.4l0,0
				c0.1,0.1,0.2,0.3,0.4,0.5c0.1,0.2,0.2,0.3,0.3,0.5c0.2,0.4,0.4,0.7,0.5,1.1c0.2,0.4,0.3,0.8,0.4,1.1c0.1,0.4,0.2,0.7,0.2,1.1
				C57.1,86,56.6,88,55,88.3c-2.1,0.3-2.9,2.9-2.9,3.6c0,0.1,0,0.1,0,0.1c-0.1,0-0.6-1.5-0.3-3.4c0,0,0,0,0.1-0.1
				c0.2-0.3,0.4-0.6,0.6-0.9c0.1-0.2,0.2-0.3,0.2-0.5l0.1-0.2l0.1-0.2c0.1-0.3,0.2-0.7,0.3-1c0-0.3,0-0.7,0-1
				c-0.1-0.3-0.1-0.6-0.2-0.8c-0.2-0.5-0.5-0.8-0.7-1.1c-0.2-0.2-0.4-0.3-0.4-0.3s0.1,0.2,0.2,0.4c0.1,0.3,0.2,0.7,0.3,1.1
				c0,0.2,0.1,0.5,0.1,0.7c0,0.3,0,0.5,0,0.8c0,0.3-0.1,0.6-0.2,0.9l0,0.1l0,0c0,0,0,0,0,0s0,0,0,0l0,0.1l-0.1,0.2
				c-0.1,0.2-0.1,0.3-0.2,0.4c-0.1,0.3-0.3,0.5-0.4,0.8c-0.3,0.3-0.7,0.5-1.2,0.5c0,0-0.1,0-0.1,0c0,0,0.6-1.2-0.3-3
				C49,84,48.7,82,49.2,79.9c-0.8,0.8-0.9,2-1,2.1c-1-2.8-1.6-5.2,0.2-7.2c-1.4-1.2-3.6-3.7-3.6-3.7l-4,1.1L27.2,60.4l-3.9-9.1
				l15.4,12.8L22.3,48.9l-4.5-10.3l21.4,20.1c0,0,0-0.1,0-0.1L16.4,35.3l-4.3-10l27,26.2c0-0.1,0-0.2,0-0.4L10.4,21.5L1.3,1.3
				l44.6,49.6c0.6,0.5,1,0.7,1.4,0.7c0.9,0,1.4-1.3,2.2-3.1c-0.2,0-0.3,0-0.5,0c-0.4,0-0.7,0-0.7,0c0.8-0.3,3.2-3.5,1.8-7.4
				c-1.3-3.7-3.5-4.3-4.9-4.3c-0.8,0-1.4,0.2-1.4,0.2c0.5-1,1.9-1.9,1.9-1.9c0.9,0.5,1.8,0.7,2.6,0.7c0.8,0,1.4-0.2,1.8-0.5
				c0.2-0.1,0.4-0.2,0.8-0.2c1,0,2.6,0.7,4.9,3c1.8,1.8,3.8,2.4,5.8,2.4c0.1,0,0.3,0,0.4,0l-0.3,0.4c-3.8,0.5-4.6,1.6-4.6,1.6
				s-1.9,2.1,0,3.9c0,0-0.6-0.1-1.1-0.2c0.2,1,0.9,5.1,3,5.1C59.6,51.2,60.2,50.9,60.9,50.2 M103.9,0.4L60,49.3
				c-0.6,0.5-0.9,0.6-1,0.6c0,0-0.7-0.1-1.4-2.5c0.3-0.1,0.5-0.3,0.6-0.6c0.2-0.5,0.1-1.1-0.3-1.5c-0.4-0.4-0.6-0.8-0.4-1.3
				c0.1-0.4,0.4-0.8,0.4-0.8c0.1-0.1,0,0,0.1-0.1c0.2-0.2,1.2-0.8,3.8-1.1c0.3,0,0.7-0.2,0.9-0.5l0.3-0.4c0.3-0.4,0.3-0.9,0.1-1.4
				c-0.2-0.4-0.7-0.7-1.1-0.7c0,0,0,0,0,0c-0.1,0-0.2,0-0.4,0c-2.1,0-3.6-0.6-4.9-2c-2.7-2.8-4.7-3.4-5.8-3.4
				c-0.6,0-1.1,0.2-1.6,0.5c-0.2,0.1-0.5,0.3-1.1,0.3c-0.4,0-1.1-0.1-2-0.5c-0.2-0.1-0.4-0.1-0.6-0.1c-0.2,0-0.5,0.1-0.7,0.2
				c-0.3,0.2-1.7,1.1-2.3,2.4c-0.2,0.5-0.2,1.1,0.2,1.5c0.2,0.3,0.6,0.4,0.9,0.4c0.2,0,0.3,0,0.5-0.1c0,0,0.4-0.1,0.9-0.1
				c2,0,3.1,1.9,3.7,3.5c1.1,3.1-0.8,5.5-1.1,5.8c-0.5,0.2-0.8,0.8-0.8,1.3c0.1,0.4,0.3,0.7,0.6,0.9c-0.1,0.3-0.3,0.5-0.4,0.7
				c-0.1,0-0.2-0.1-0.4-0.3L2.2,0.4C2,0.1,1.6,0,1.3,0C1,0,0.8,0.1,0.6,0.2c-0.5,0.3-0.7,1-0.5,1.6L9.3,22c0.1,0.1,0.1,0.3,0.2,0.4
				l1.8,1.9c-0.5,0.3-0.7,1-0.4,1.6l4.3,10c0.1,0.1,0.2,0.3,0.3,0.4l1.4,1.4c-0.4,0.4-0.5,0.9-0.3,1.4l4.5,10.3
				c0.1,0.2,0.2,0.3,0.3,0.4l0.8,0.8c-0.2,0.4-0.3,0.8-0.1,1.2l3.9,9.1c0.1,0.2,0.2,0.3,0.3,0.5l13.6,11.9c0.2,0.2,0.5,0.3,0.8,0.3
				c0.1,0,0.2,0,0.3,0l3.2-0.9c0.6,0.6,1.5,1.6,2.4,2.5c-1.3,2.3-0.6,4.8,0.3,7.4c0.1,0.4,0.4,0.6,0.7,0.8c0.1,1,0.4,2,0.9,2.9
				c0.5,1,0.3,1.7,0.3,1.9c-0.2,0.4-0.2,0.8,0,1.2c0.2,0.4,0.6,0.6,1,0.7c0.1,0,0.2,0,0.3,0c0.1,0,0.1,0,0.2,0
				c0,1.3,0.3,2.4,0.7,2.9c0.3,0.3,0.6,0.5,1,0.5c0.6,0,1.3-0.5,1.3-1.3c0-0.4,0.6-2.2,1.8-2.4c0.8-0.1,2-0.6,2.7-2.1
				c0.1,0,0.1,0,0.2,0c0.1,0,0.1,0,0.2,0c0.5,0,1-0.3,1.2-0.8c0.5-1.3,0.6-2.5,0.5-3.7c0.2-0.2,0.4-0.4,0.4-0.7
				c0.5-2.6-0.3-5.6-1.1-7.2c0.8-0.9,1.4-1.8,1.8-2.3l3,0.8c0.1,0,0.2,0,0.3,0c0.3,0,0.6-0.1,0.9-0.3l15.1-13.5
				c0.1-0.1,0.2-0.3,0.3-0.5l3.3-7.5c0.2-0.4,0.1-0.9-0.1-1.2l0.8-0.8c0.1-0.1,0.2-0.3,0.3-0.4l4.5-10.3c0.2-0.5,0.1-1.1-0.3-1.4
				l1.4-1.4c0.1-0.1,0.2-0.2,0.3-0.4l4.3-10c0.2-0.6,0.1-1.2-0.4-1.6l1.8-1.9c0.1-0.1,0.2-0.2,0.2-0.4l9.2-20.2
				c0.3-0.6,0.1-1.3-0.5-1.6c-0.2-0.1-0.5-0.2-0.7-0.2C104.5,0,104.2,0.1,103.9,0.4"/>
		</defs>
		<clipPath id="SVGID_2_">
			<use xlink:href="#SVGID_1_"  style="overflow:visible;"/>
		</clipPath>
		
			<linearGradient id="SVGID_3_" gradientUnits="userSpaceOnUse" x1="-1137.2552" y1="-86.3083" x2="-1136.874" y2="-86.3083" gradientTransform="matrix(0 128.5068 128.5068 0 11144.2822 146188.3594)">
			<stop  offset="0" style="stop-color:#D1D2D3"/>
			<stop  offset="0.4374" style="stop-color:#D1D2D3"/>
			<stop  offset="1" style="stop-color:#EF5023"/>
		</linearGradient>
		<rect x="-0.1" class="st2" width="106.5" height="93.2"/>
	</g>
	<path class="st3" d="M47.5,69.7c-0.1,0.7,0.7,3.5,0.7,3.9c0.4-0.6,0.4-3.7,1.7-4c-0.1-0.6-0.3-1.7,0.6-2.6c-0.4-1-0.3-2.2-0.3-2.2
		c1.7,0.9,3,0.1,3,0.1c-3.7-1.5-3.4-4.7-3.4-4.7c1.2,1.4,2.6,0.9,2.6,0.9s-3.5-1.1-0.6-10c0.9-2.8,0.1-4.9,0.3-7.4
		c0.1-2.5,0.9-4.1,0.9-4.1c-1.5,0.7-3.5-1.1-3.5-1.1c3.7,6.9-0.1,9.6-0.1,9.6c0.5,0.1,1.2-0.4,1.2-0.4c-0.8,3.2-2.8,4.7-2.8,4.7
		l1.1-0.4c0,0-1.7,1.9-1.9,2.2c0.1-0.1,0.7-0.3,0.7-0.3c-0.7,0.6-1.5,3-1.5,3c0.3-0.6,1.5-1.4,1.5-1.4c-0.4,0.7-1.9,5.9-1.9,5.9
		c0.3-0.6,1-1.5,1-1.5c-0.6,1.1-0.5,3.9-0.5,3.9c0.6-1.2,0.9-0.9,0.9-0.9C47.6,64.6,47.7,68.1,47.5,69.7"/>
	<path class="st0" d="M37.6,54.2C37.6,54.2,37.6,54.2,37.6,54.2C37.5,54.3,37.6,54.2,37.6,54.2"/>
</g>
</svg>
