<svg id="Layer_2" data-name="Layer 2" xmlns="http://www.w3.org/2000/svg" xmlns:xlink="http://www.w3.org/1999/xlink" viewBox="0 0 106.5 93.5"><defs><style>.cls-1{fill: none;}.cls-2{clip-path:url(#clip-path);}path{stroke: rgb(199, 194, 194) !important;stroke-dasharray: 1000; stroke-dashoffset: 1000;animation: dash 4s linear forwards;}@keyframes dash {to {stroke-dashoffset: 0;}}</style><clipPath id="clip-path" transform="translate(0.1)"><path class="cls-1" d="M50.5,36.7l.1.2h0c.1,0,.3-.1.4-.1h.1l.1.1c-.1.1-.2.1-.2.2s.2.3.4.3a.76.76,0,0,0,.4-.2,4.33,4.33,0,0,1,.5.1c.4,0,.5-.2.3-.2h-.2c-.4,0-.5-.1-1-.4a.6.6,0,0,0-.4-.1.5.5,0,0,0-.5.1M60.9,50.2,104.8,1.3,95.6,21.5,67.8,50.4v.4L94,25.4l-4.3,10-22,22.4V58L88.3,38.6,83.8,48.9,67.7,63.8h0L82.8,51.3l-3.2,7.5L64.5,72.3l-3.9-1.1s-1.3,1.8-2.9,3.6A10.87,10.87,0,0,1,59,81.9c-.4-1.4-1.1-2.6-1.7-2.7a8.14,8.14,0,0,1,.8,6.9,5.27,5.27,0,0,0-.2-1.3v-.1a2,2,0,0,0-.1-.7c0-.2-.1-.4-.1-.6-.1-.4-.3-.8-.4-1.2L56.7,81a1,1,0,0,0-.4-.5c-.1-.2-.3-.3-.4-.5l-.3-.4c-.1-.1-.2-.3-.3-.4s-.1-.1-.1-.2l-.1-.2c-.1-.1-.1-.3-.2-.4a.6.6,0,0,1-.1-.4v-.4a.9.9,0,0,1,.1-.5c.1-.2.1-.3.2-.4-.1.1-.3.2-.4.4a.76.76,0,0,0-.2.5.37.37,0,0,1-.1.3v.9c0,.2.1.3.1.5s.1.3.2.5.2.3.2.5l.3.4h0c.1.1.2.3.4.5s.2.3.3.5a5.36,5.36,0,0,1,.5,1.1,7.6,7.6,0,0,1,.4,1.1A4.25,4.25,0,0,1,57,85c.1,1-.4,3-2,3.3-2.1.3-2.9,2.9-2.9,3.6V92a5.87,5.87,0,0,1-.3-3.4l.1-.1.6-.9c.1-.2.2-.3.2-.5l.1-.2.1-.2c.1-.3.2-.7.3-1v-1c-.1-.3-.1-.6-.2-.8a5.25,5.25,0,0,0-.7-1.1,1.73,1.73,0,0,0-.4-.3l.2.4c.1.3.2.7.3,1.1,0,.2.1.5.1.7v.8a2.92,2.92,0,0,1-.2.9v.1h0v.1l-.1.2c-.1.2-.1.3-.2.4-.1.3-.3.5-.4.8a1.66,1.66,0,0,1-1.2.5h-.1a3.51,3.51,0,0,0-.3-3,7.07,7.07,0,0,1-.8-5.6,5,5,0,0,0-1,2.1c-1-2.8-1.6-5.2.2-7.2a49.56,49.56,0,0,1-3.6-3.7l-4,1.1L27.2,60.4l-3.9-9.1L38.7,64.1,22.3,48.9,17.8,38.6,39.2,58.7v-.1L16.4,35.3l-4.3-10,27,26.2v-.4L10.4,21.5,1.3,1.3,45.9,50.9a2.27,2.27,0,0,0,1.4.7c.9,0,1.4-1.3,2.2-3.1H48.3c.8-.3,3.2-3.5,1.8-7.4-1.3-3.7-3.5-4.3-4.9-4.3a4.88,4.88,0,0,0-1.4.2,6.29,6.29,0,0,1,1.9-1.9,5.36,5.36,0,0,0,2.6.7,3,3,0,0,0,1.8-.5,1.55,1.55,0,0,1,.8-.2c1,0,2.6.7,4.9,3a7.85,7.85,0,0,0,5.8,2.4H62l-.3.4c-3.8.5-4.6,1.6-4.6,1.6s-1.9,2.1,0,3.9L56,46.2c.2,1,.9,5.1,3,5.1a3.46,3.46,0,0,0,1.9-1.1M103.9.4,60,49.3c-.6.5-.9.6-1,.6s-.7-.1-1.4-2.5a.9.9,0,0,0,.6-.6,1.4,1.4,0,0,0-.3-1.5,1.13,1.13,0,0,1-.4-1.3,2.66,2.66,0,0,1,.4-.8l.1-.1c.2-.2,1.2-.8,3.8-1.1a1.19,1.19,0,0,0,.9-.5l.3-.4a1.39,1.39,0,0,0,.1-1.4A1.36,1.36,0,0,0,62,39h-.4a6.14,6.14,0,0,1-4.9-2c-2.7-2.8-4.7-3.4-5.8-3.4a3,3,0,0,0-1.6.5,2.07,2.07,0,0,1-1.1.3,5.13,5.13,0,0,1-2-.5,1.27,1.27,0,0,0-.6-.1,1.85,1.85,0,0,0-.7.2,6.53,6.53,0,0,0-2.3,2.4,1.37,1.37,0,0,0,.2,1.5,1.09,1.09,0,0,0,.9.4.9.9,0,0,0,.5-.1,4.13,4.13,0,0,1,.9-.1c2,0,3.1,1.9,3.7,3.5a5.94,5.94,0,0,1-1.1,5.8,1.44,1.44,0,0,0-.8,1.3,1.46,1.46,0,0,0,.6.9,4.35,4.35,0,0,1-.4.7c-.1,0-.2-.1-.4-.3L2.2.4A1.09,1.09,0,0,0,1.3,0,1.45,1.45,0,0,0,.6.2,1.38,1.38,0,0,0,.1,1.8L9.3,22c.1.1.1.3.2.4l1.8,1.9a1.23,1.23,0,0,0-.4,1.6l4.3,10c.1.1.2.3.3.4l1.4,1.4a1.24,1.24,0,0,0-.3,1.4l4.5,10.3a1.38,1.38,0,0,0,.3.4l.8.8a1.29,1.29,0,0,0-.1,1.2L26,60.9c.1.2.2.3.3.5L39.9,73.3a1.14,1.14,0,0,0,.8.3H41l3.2-.9c.6.6,1.5,1.6,2.4,2.5-1.3,2.3-.6,4.8.3,7.4a1.39,1.39,0,0,0,.7.8,7.54,7.54,0,0,0,.9,2.9,3,3,0,0,1,.3,1.9,1.27,1.27,0,0,0,0,1.2,1.45,1.45,0,0,0,1,.7h.5A5.11,5.11,0,0,0,51,93a1.39,1.39,0,0,0,1,.5,1.32,1.32,0,0,0,1.3-1.3c0-.4.6-2.2,1.8-2.4a3.48,3.48,0,0,0,2.7-2.1h.4a1.3,1.3,0,0,0,1.2-.8,8.09,8.09,0,0,0,.5-3.7,1,1,0,0,0,.4-.7,12.5,12.5,0,0,0-1.1-7.2c.8-.9,1.4-1.8,1.8-2.3l3,.8h.3a1.61,1.61,0,0,0,.9-.3L80.3,60a2.19,2.19,0,0,0,.3-.5L83.9,52a1.26,1.26,0,0,0-.1-1.2l.8-.8c.1-.1.2-.3.3-.4l4.5-10.3a1.2,1.2,0,0,0-.3-1.4l1.4-1.4a1.38,1.38,0,0,0,.3-.4l4.3-10a1.38,1.38,0,0,0-.4-1.6l1.8-1.9a.52.52,0,0,0,.2-.4L105.9,2a1.17,1.17,0,0,0-.5-1.6,1.85,1.85,0,0,0-.7-.2c-.2-.2-.5-.1-.8.2"/></clipPath></defs><title>phoenix_grey</title><path class="cls-1" d="M50.5,36.7l.1.2h0c.1,0,.3-.1.4-.1h.1l.1.1c-.1.1-.2.1-.2.2s.2.3.4.3a.76.76,0,0,0,.4-.2,4.33,4.33,0,0,1,.5.1c.4,0,.5-.2.3-.2h-.2c-.4,0-.5-.1-1-.4a.6.6,0,0,0-.4-.1.5.5,0,0,0-.5.1M60.9,50.2,104.8,1.3,95.6,21.5,67.8,50.4v.4L94,25.4l-4.3,10-22,22.4V58L88.3,38.6,83.8,48.9,67.7,63.8h0L82.8,51.3l-3.2,7.5L64.5,72.3l-3.9-1.1s-1.3,1.8-2.9,3.6A10.87,10.87,0,0,1,59,81.9c-.4-1.4-1.1-2.6-1.7-2.7a8.14,8.14,0,0,1,.8,6.9,5.27,5.27,0,0,0-.2-1.3v-.1a2,2,0,0,0-.1-.7c0-.2-.1-.4-.1-.6-.1-.4-.3-.8-.4-1.2L56.7,81a1,1,0,0,0-.4-.5c-.1-.2-.3-.3-.4-.5l-.3-.4c-.1-.1-.2-.3-.3-.4s-.1-.1-.1-.2l-.1-.2c-.1-.1-.1-.3-.2-.4a.6.6,0,0,1-.1-.4v-.4a.9.9,0,0,1,.1-.5c.1-.2.1-.3.2-.4-.1.1-.3.2-.4.4a.76.76,0,0,0-.2.5.37.37,0,0,1-.1.3v.9c0,.2.1.3.1.5s.1.3.2.5.2.3.2.5l.3.4h0c.1.1.2.3.4.5s.2.3.3.5a5.36,5.36,0,0,1,.5,1.1,7.6,7.6,0,0,1,.4,1.1A4.25,4.25,0,0,1,57,85c.1,1-.4,3-2,3.3-2.1.3-2.9,2.9-2.9,3.6V92a5.87,5.87,0,0,1-.3-3.4l.1-.1.6-.9c.1-.2.2-.3.2-.5l.1-.2.1-.2c.1-.3.2-.7.3-1v-1c-.1-.3-.1-.6-.2-.8a5.25,5.25,0,0,0-.7-1.1,1.73,1.73,0,0,0-.4-.3l.2.4c.1.3.2.7.3,1.1,0,.2.1.5.1.7v.8a2.92,2.92,0,0,1-.2.9v.1h0v.1l-.1.2c-.1.2-.1.3-.2.4-.1.3-.3.5-.4.8a1.66,1.66,0,0,1-1.2.5h-.1a3.51,3.51,0,0,0-.3-3,7.07,7.07,0,0,1-.8-5.6,5,5,0,0,0-1,2.1c-1-2.8-1.6-5.2.2-7.2a49.56,49.56,0,0,1-3.6-3.7l-4,1.1L27.2,60.4l-3.9-9.1L38.7,64.1,22.3,48.9,17.8,38.6,39.2,58.7v-.1L16.4,35.3l-4.3-10,27,26.2v-.4L10.4,21.5,1.3,1.3,45.9,50.9a2.27,2.27,0,0,0,1.4.7c.9,0,1.4-1.3,2.2-3.1H48.3c.8-.3,3.2-3.5,1.8-7.4-1.3-3.7-3.5-4.3-4.9-4.3a4.88,4.88,0,0,0-1.4.2,6.29,6.29,0,0,1,1.9-1.9,5.36,5.36,0,0,0,2.6.7,3,3,0,0,0,1.8-.5,1.55,1.55,0,0,1,.8-.2c1,0,2.6.7,4.9,3a7.85,7.85,0,0,0,5.8,2.4H62l-.3.4c-3.8.5-4.6,1.6-4.6,1.6s-1.9,2.1,0,3.9L56,46.2c.2,1,.9,5.1,3,5.1a3.46,3.46,0,0,0,1.9-1.1M103.9.4,60,49.3c-.6.5-.9.6-1,.6s-.7-.1-1.4-2.5a.9.9,0,0,0,.6-.6,1.4,1.4,0,0,0-.3-1.5,1.13,1.13,0,0,1-.4-1.3,2.66,2.66,0,0,1,.4-.8l.1-.1c.2-.2,1.2-.8,3.8-1.1a1.19,1.19,0,0,0,.9-.5l.3-.4a1.39,1.39,0,0,0,.1-1.4A1.36,1.36,0,0,0,62,39h-.4a6.14,6.14,0,0,1-4.9-2c-2.7-2.8-4.7-3.4-5.8-3.4a3,3,0,0,0-1.6.5,2.07,2.07,0,0,1-1.1.3,5.13,5.13,0,0,1-2-.5,1.27,1.27,0,0,0-.6-.1,1.85,1.85,0,0,0-.7.2,6.53,6.53,0,0,0-2.3,2.4,1.37,1.37,0,0,0,.2,1.5,1.09,1.09,0,0,0,.9.4.9.9,0,0,0,.5-.1,4.13,4.13,0,0,1,.9-.1c2,0,3.1,1.9,3.7,3.5a5.94,5.94,0,0,1-1.1,5.8,1.44,1.44,0,0,0-.8,1.3,1.46,1.46,0,0,0,.6.9,4.35,4.35,0,0,1-.4.7c-.1,0-.2-.1-.4-.3L2.2.4A1.09,1.09,0,0,0,1.3,0,1.45,1.45,0,0,0,.6.2,1.38,1.38,0,0,0,.1,1.8L9.3,22c.1.1.1.3.2.4l1.8,1.9a1.23,1.23,0,0,0-.4,1.6l4.3,10c.1.1.2.3.3.4l1.4,1.4a1.24,1.24,0,0,0-.3,1.4l4.5,10.3a1.38,1.38,0,0,0,.3.4l.8.8a1.29,1.29,0,0,0-.1,1.2L26,60.9c.1.2.2.3.3.5L39.9,73.3a1.14,1.14,0,0,0,.8.3H41l3.2-.9c.6.6,1.5,1.6,2.4,2.5-1.3,2.3-.6,4.8.3,7.4a1.39,1.39,0,0,0,.7.8,7.54,7.54,0,0,0,.9,2.9,3,3,0,0,1,.3,1.9,1.27,1.27,0,0,0,0,1.2,1.45,1.45,0,0,0,1,.7h.5A5.11,5.11,0,0,0,51,93a1.39,1.39,0,0,0,1,.5,1.32,1.32,0,0,0,1.3-1.3c0-.4.6-2.2,1.8-2.4a3.48,3.48,0,0,0,2.7-2.1h.4a1.3,1.3,0,0,0,1.2-.8,8.09,8.09,0,0,0,.5-3.7,1,1,0,0,0,.4-.7,12.5,12.5,0,0,0-1.1-7.2c.8-.9,1.4-1.8,1.8-2.3l3,.8h.3a1.61,1.61,0,0,0,.9-.3L80.3,60a2.19,2.19,0,0,0,.3-.5L83.9,52a1.26,1.26,0,0,0-.1-1.2l.8-.8c.1-.1.2-.3.3-.4l4.5-10.3a1.2,1.2,0,0,0-.3-1.4l1.4-1.4a1.38,1.38,0,0,0,.3-.4l4.3-10a1.38,1.38,0,0,0-.4-1.6l1.8-1.9a.52.52,0,0,0,.2-.4L105.9,2a1.17,1.17,0,0,0-.5-1.6,1.85,1.85,0,0,0-.7-.2c-.2-.2-.5-.1-.8.2" transform="translate(0.1)"/><g class="cls-2"><rect class="cls-1" width="106.5" height="93.2"/></g><path class="cls-1" d="M37.6,54.2h0" transform="translate(0.1)"/></svg>
